<?xml version="1.0" standalone="no"?>
<!DOCTYPE svg PUBLIC "-//W3C//DTD SVG 20010904//EN"
 "http://www.w3.org/TR/2001/REC-SVG-20010904/DTD/svg10.dtd">
<svg version="1.0" xmlns="http://www.w3.org/2000/svg"
 width="200.000000pt" height="200.000000pt" viewBox="0 0 200.000000 200.000000"
 preserveAspectRatio="xMidYMid meet">
<metadata>
Created by potrace 1.11, written by Peter Selinger 2001-2013
</metadata>
<g transform="translate(0.000000,200.000000) scale(0.100000,-0.100000)"
fill="#000000" stroke="none">
<path d="M630 1485 c-80 -41 -138 -74 -128 -74 12 -1 15 -7 10 -23 -4 -16 -7
-18 -11 -7 -3 8 -22 15 -41 16 -27 2 -77 -18 -212 -84 -98 -48 -178 -90 -178
-93 0 -11 97 -59 106 -51 10 9 308 163 336 174 10 3 20 2 23 -3 3 -5 -61 -43
-142 -86 -82 -42 -161 -85 -177 -94 l-29 -18 33 -17 c18 -9 30 -13 27 -8 -3 5
11 18 31 29 20 10 88 47 150 81 61 33 112 56 112 50 0 -7 -63 -46 -140 -87
-77 -41 -140 -78 -140 -82 0 -4 8 -12 18 -17 15 -8 42 4 133 56 63 36 127 65
142 66 17 0 26 5 23 12 -2 7 14 22 36 35 33 18 42 20 49 9 8 -13 14 -76 10
-106 -1 -7 3 -13 9 -13 18 0 25 5 22 14 -2 5 0 16 3 24 4 12 9 12 31 -3 17
-11 29 -13 33 -7 10 16 34 17 59 4 19 -11 22 -10 22 5 0 16 2 15 21 -3 11 -12
21 -29 23 -38 1 -10 8 -21 15 -25 9 -6 5 -13 -13 -24 -22 -15 -28 -15 -60 -2
-27 12 -41 12 -60 4 -21 -10 -23 -14 -13 -30 6 -10 24 -24 39 -30 21 -9 27
-16 23 -30 -5 -16 -2 -18 24 -13 22 5 44 -2 88 -27 72 -40 69 -37 55 -51 -17
-17 -15 -23 14 -37 22 -10 30 -8 54 11 32 26 38 46 15 54 -11 5 -13 10 -5 19
6 7 9 21 9 31 -5 53 1 74 22 74 11 0 18 -4 14 -10 -3 -5 6 -17 21 -26 20 -14
27 -15 34 -5 6 10 15 9 45 -5 21 -10 33 -20 27 -22 -7 -2 -12 -16 -12 -31 0
-23 -18 -43 -105 -115 -57 -48 -125 -106 -150 -129 l-46 -42 81 -48 c94 -56
74 -62 200 59 47 45 116 111 154 147 l69 65 -30 16 c-21 11 -30 23 -30 40 0
16 4 23 12 20 7 -3 11 -13 8 -23 -3 -13 9 -23 46 -41 49 -23 61 -35 41 -42 -9
-3 -293 -280 -318 -310 -10 -13 -6 -19 28 -42 27 -18 40 -22 40 -13 0 8 12 25
28 39 15 14 64 63 109 110 109 112 109 112 108 84 0 -26 -211 -259 -226 -250
-5 3 -9 3 -9 1 0 -7 66 -45 83 -49 8 -2 54 42 103 97 49 55 104 118 124 139
19 21 40 44 45 50 6 7 21 24 34 38 l24 27 -35 17 c-28 13 -35 22 -36 45 0 16
2 28 6 27 4 -1 19 2 33 6 18 5 37 2 57 -8 l30 -16 63 73 c35 39 87 97 116 127
58 61 60 57 -40 96 l-69 26 -121 -120 -122 -121 34 -16 34 -16 116 121 c88 92
120 120 133 115 15 -6 13 -11 -15 -39 -17 -18 -69 -71 -115 -119 -46 -48 -87
-85 -92 -82 -5 3 -19 1 -30 -5 -11 -6 -20 -7 -20 -2 0 8 -92 54 -154 77 -17 6
-25 14 -20 18 6 3 27 -2 46 -13 l35 -18 124 118 124 118 -39 16 c-22 9 -41 14
-44 11 -3 -3 0 -5 7 -5 14 0 5 -9 -121 -124 -111 -100 -128 -106 -213 -71 -45
18 -54 25 -41 32 13 7 15 15 8 33 l-9 23 -25 -28 c-15 -16 -28 -23 -32 -17 -3
6 19 30 49 54 35 27 54 49 52 59 -3 10 3 15 16 15 31 -1 30 17 0 36 -16 10
-22 18 -15 18 16 0 15 31 -2 55 -7 10 -11 27 -8 37 3 13 -1 18 -17 18 -12 0
-21 6 -21 15 0 8 -5 15 -10 15 -7 0 -7 -7 1 -21 15 -29 -3 -48 -27 -28 -10 8
-15 9 -11 3 3 -6 -5 -20 -18 -32 -15 -13 -27 -17 -31 -11 -3 6 -12 8 -19 5 -7
-2 -30 4 -51 15 -43 22 -60 24 -69 9 -4 -6 11 -18 34 -27 49 -19 56 -52 15
-73 -22 -12 -27 -12 -35 0 -7 11 -8 9 -7 -10 2 -18 -1 -24 -12 -21 -56 14 -63
14 -57 -3 6 -15 3 -15 -30 -1 -19 8 -37 15 -39 15 -2 0 -4 4 -4 9 0 5 24 23
54 40 47 27 66 47 66 68 0 3 -8 2 -17 -1 -17 -6 -17 -5 0 8 19 14 23 36 7 36
-6 0 -5 8 2 20 20 32 3 33 -44 3 -65 -42 -79 -50 -130 -75 -26 -13 -48 -29
-48 -35 0 -15 -16 -17 -25 -3 -3 6 -1 10 4 10 6 0 11 11 11 24 0 21 17 34 105
83 92 50 103 60 88 70 -14 11 -27 7 -77 -21 -34 -19 -83 -46 -109 -61 -27 -15
-51 -24 -55 -21 -7 8 -11 5 106 68 91 49 101 56 79 62 -19 4 -51 -8 -129 -50
-138 -74 -188 -97 -196 -89 -8 8 2 14 138 85 143 75 138 70 103 85 -61 26 -66
25 -213 -50z m185 46 c-20 -17 -248 -131 -264 -131 -9 1 45 32 119 70 127 65
167 82 145 61z m-345 -158 c0 -5 -75 -46 -168 -93 -200 -102 -185 -95 -180
-80 3 10 321 178 341 179 4 1 7 -2 7 -6z m185 -33 c3 -5 1 -10 -4 -10 -6 0
-11 -7 -11 -16 0 -8 -4 -13 -9 -10 -11 7 -2 46 10 46 4 0 11 -4 14 -10z m285
-5 c0 -2 -10 -9 -22 -15 -22 -11 -22 -10 -4 4 21 17 26 19 26 11z m370 -26 c9
-17 8 -23 -7 -35 -21 -16 -24 -16 -42 -5 -12 8 -12 12 2 26 10 9 17 21 17 26
0 17 19 9 30 -12z m-715 -9 c-3 -5 -10 -10 -16 -10 -5 0 -9 5 -9 10 0 6 7 10
16 10 8 0 12 -4 9 -10z m649 -59 c6 -10 -43 -46 -51 -37 -8 8 8 27 18 21 5 -4
9 1 9 9 0 17 15 22 24 7z m-121 -91 c-6 -21 -24 -23 -30 -3 -2 6 4 13 14 16
10 3 19 5 20 6 0 0 -1 -8 -4 -19z m-85 -59 c18 -11 12 -133 -6 -139 -9 -3 -11
3 -6 22 3 14 2 26 -3 26 -5 0 -9 10 -8 23 3 31 -5 47 -22 47 -13 0 -13 3 -3
15 14 17 29 19 48 6z m252 -203 c-1 -15 -22 -41 -63 -77 -34 -30 -90 -80 -125
-112 -58 -55 -85 -69 -95 -51 -3 4 36 43 86 87 49 44 113 101 141 127 28 26
52 48 54 48 1 0 2 -10 2 -22z m264 -79 c-21 -23 -25 -21 -18 8 4 14 11 20 20
16 13 -5 12 -8 -2 -24z"/>
<path d="M1580 1261 c0 -5 -26 -29 -57 -54 -32 -25 -71 -58 -88 -72 -16 -15
-47 -41 -67 -58 l-38 -31 32 -13 c25 -11 34 -11 46 -1 42 34 227 201 230 207
1 3 -11 12 -28 18 -16 6 -30 8 -30 4z"/>
<path d="M760 1120 c-8 -5 -12 -12 -9 -15 8 -8 39 5 39 16 0 11 -11 11 -30 -1z"/>
</g>
</svg>
